<svg width="46" height="43" viewBox="0 0 46 43" fill="none" xmlns="http://www.w3.org/2000/svg">
<path d="M0 7.525C0 3.3712 2.576 0 5.75 0H40.25C43.424 0 46 3.3712 46 7.525V35.475C46 37.4708 45.3942 39.3848 44.3159 40.796C43.2375 42.2072 41.775 43 40.25 43H5.75C4.22501 43 2.76247 42.2072 1.68414 40.796C0.605802 39.3848 0 37.4708 0 35.475V7.525ZM14.0004 20.2702C14.586 20.2702 15.1657 20.1193 15.7067 19.826C16.2477 19.5328 16.7392 19.103 17.1532 18.5611C17.5672 18.0193 17.8957 17.376 18.1197 16.6681C18.3438 15.9601 18.4591 15.2014 18.4591 14.4351C18.4591 13.6688 18.3438 12.9101 18.1197 12.2021C17.8957 11.4942 17.5672 10.8509 17.1532 10.3091C16.7392 9.76722 16.2477 9.33741 15.7067 9.04417C15.1657 8.75093 14.586 8.6 14.0004 8.6C12.8179 8.6 11.6838 9.21477 10.8476 10.3091C10.0115 11.4034 9.54171 12.8875 9.54171 14.4351C9.54171 15.9827 10.0115 17.4668 10.8476 18.5611C11.6838 19.6554 12.8179 20.2702 14.0004 20.2702V20.2702ZM9.39057 23.1856C8.64289 23.1856 7.92583 23.5743 7.39714 24.2662C6.86845 24.9581 6.57143 25.8965 6.57143 26.875C6.57154 28.4764 6.98066 30.0318 7.73376 31.294C8.48686 32.5561 9.54073 33.4526 10.7279 33.841L10.902 33.9012C12.9391 34.5677 15.065 34.5677 17.0989 33.9012L17.2763 33.8453C18.4634 33.4569 19.5173 32.5604 20.2704 31.2983C21.0235 30.0361 21.4326 28.4807 21.4327 26.8793C21.4331 26.3944 21.3605 25.9142 21.2191 25.4661C21.0776 25.018 20.87 24.6108 20.6082 24.2677C20.3463 23.9247 20.0354 23.6525 19.6932 23.4669C19.3509 23.2812 18.9841 23.1856 18.6136 23.1856H9.39057ZM27.9286 12.9C27.4929 12.9 27.075 13.1265 26.7669 13.5297C26.4588 13.9329 26.2857 14.4798 26.2857 15.05C26.2857 15.6202 26.4588 16.1671 26.7669 16.5703C27.075 16.9735 27.4929 17.2 27.9286 17.2H37.7857C38.2214 17.2 38.6393 16.9735 38.9474 16.5703C39.2555 16.1671 39.4286 15.6202 39.4286 15.05C39.4286 14.4798 39.2555 13.9329 38.9474 13.5297C38.6393 13.1265 38.2214 12.9 37.7857 12.9H27.9286ZM27.9286 25.8C27.4929 25.8 27.075 26.0265 26.7669 26.4297C26.4588 26.8329 26.2857 27.3798 26.2857 27.95C26.2857 28.5202 26.4588 29.0671 26.7669 29.4703C27.075 29.8735 27.4929 30.1 27.9286 30.1H37.7857C38.2214 30.1 38.6393 29.8735 38.9474 29.4703C39.2555 29.0671 39.4286 28.5202 39.4286 27.95C39.4286 27.3798 39.2555 26.8329 38.9474 26.4297C38.6393 26.0265 38.2214 25.8 37.7857 25.8H27.9286Z" fill="#85B6FF"/>
</svg>
