<svg width="67" height="24" viewBox="0 0 67 24" fill="none" xmlns="http://www.w3.org/2000/svg">
<rect width="67" height="24" rx="12" fill="black" fill-opacity="0.62"/>
<path d="M27.7812 11.3994H23.4678V14.9268H28.4785V16H22.1553V6.04688H28.4102V7.12695H23.4678V10.3262H27.7812V11.3994ZM32.3955 11.3037L34.0361 8.60352H35.5127L33.0928 12.2607L35.5879 16H34.125L32.416 13.2314L30.707 16H29.2373L31.7324 12.2607L29.3125 8.60352H30.7754L32.3955 11.3037ZM38.2334 16H36.9688V8.60352H38.2334V16ZM36.8662 6.6416C36.8662 6.43652 36.9277 6.26335 37.0508 6.12207C37.1784 5.98079 37.3652 5.91016 37.6113 5.91016C37.8574 5.91016 38.0443 5.98079 38.1719 6.12207C38.2995 6.26335 38.3633 6.43652 38.3633 6.6416C38.3633 6.84668 38.2995 7.01758 38.1719 7.1543C38.0443 7.29102 37.8574 7.35938 37.6113 7.35938C37.3652 7.35938 37.1784 7.29102 37.0508 7.1543C36.9277 7.01758 36.8662 6.84668 36.8662 6.6416ZM41.9795 6.8125V8.60352H43.3604V9.58105H41.9795V14.168C41.9795 14.4642 42.041 14.6875 42.1641 14.8379C42.2871 14.9837 42.4967 15.0566 42.793 15.0566C42.9388 15.0566 43.1393 15.0293 43.3945 14.9746V16C43.0618 16.0911 42.7383 16.1367 42.4238 16.1367C41.8587 16.1367 41.4326 15.9658 41.1455 15.624C40.8584 15.2822 40.7148 14.7969 40.7148 14.168V9.58105H39.3682V8.60352H40.7148V6.8125H41.9795Z" fill="white"/>
</svg>
