<svg width="108" height="24" viewBox="0 0 108 24" fill="none" xmlns="http://www.w3.org/2000/svg">
<rect width="108" height="24" rx="12" fill="#195078" fill-opacity="0.52"/>
<path d="M45.5039 16.6943C45.1667 17.1774 44.695 17.5397 44.0889 17.7812C43.4873 18.0182 42.7855 18.1367 41.9834 18.1367C41.1722 18.1367 40.4521 17.9476 39.8232 17.5693C39.1943 17.1865 38.7067 16.6442 38.3604 15.9424C38.0186 15.2406 37.8431 14.4271 37.834 13.502V12.6338C37.834 11.1344 38.1826 9.97233 38.8799 9.14746C39.5817 8.32259 40.5661 7.91016 41.833 7.91016C42.8721 7.91016 43.7083 8.17676 44.3418 8.70996C44.9753 9.23861 45.3626 9.99056 45.5039 10.9658H44.1914C43.9453 9.64876 43.1615 8.99023 41.8398 8.99023C40.9603 8.99023 40.2926 9.30013 39.8369 9.91992C39.3857 10.5352 39.1579 11.4284 39.1533 12.5996V13.4131C39.1533 14.5296 39.4085 15.4183 39.9189 16.0791C40.4294 16.7354 41.1198 17.0635 41.9902 17.0635C42.4824 17.0635 42.9131 17.0088 43.2822 16.8994C43.6514 16.79 43.9567 16.6055 44.1982 16.3457V14.1104H41.8945V13.0439H45.5039V16.6943ZM49.0107 14.1035V18H47.6982V8.04688H51.3691C52.4583 8.04688 53.3105 8.32487 53.9258 8.88086C54.5456 9.43685 54.8555 10.1729 54.8555 11.0889C54.8555 12.055 54.5524 12.8001 53.9463 13.3242C53.3447 13.8438 52.4811 14.1035 51.3555 14.1035H49.0107ZM49.0107 13.0303H51.3691C52.071 13.0303 52.6087 12.8662 52.9824 12.5381C53.3561 12.2054 53.543 11.7269 53.543 11.1025C53.543 10.5101 53.3561 10.0361 52.9824 9.68066C52.6087 9.3252 52.096 9.14062 51.4443 9.12695H49.0107V13.0303ZM59.4629 13.5635C58.3372 13.2399 57.5169 12.8434 57.002 12.374C56.4915 11.9001 56.2363 11.3167 56.2363 10.624C56.2363 9.84017 56.5485 9.19303 57.1729 8.68262C57.8018 8.16764 58.6175 7.91016 59.6201 7.91016C60.3037 7.91016 60.9121 8.04232 61.4453 8.30664C61.9831 8.57096 62.3978 8.93555 62.6895 9.40039C62.9857 9.86523 63.1338 10.3734 63.1338 10.9248H61.8145C61.8145 10.3232 61.623 9.85156 61.2402 9.50977C60.8574 9.16341 60.3174 8.99023 59.6201 8.99023C58.973 8.99023 58.4671 9.13379 58.1025 9.4209C57.7425 9.70345 57.5625 10.0977 57.5625 10.6035C57.5625 11.0091 57.7334 11.3532 58.0752 11.6357C58.4215 11.9137 59.0072 12.1689 59.832 12.4014C60.6615 12.6338 61.3086 12.8913 61.7734 13.1738C62.2428 13.4518 62.5892 13.7777 62.8125 14.1514C63.0404 14.5251 63.1543 14.9648 63.1543 15.4707C63.1543 16.2773 62.8398 16.9245 62.2109 17.4121C61.582 17.8952 60.7412 18.1367 59.6885 18.1367C59.0049 18.1367 58.3669 18.0068 57.7744 17.7471C57.182 17.4827 56.724 17.1227 56.4004 16.667C56.0814 16.2113 55.9219 15.694 55.9219 15.1152H57.2412C57.2412 15.7168 57.4622 16.193 57.9043 16.5439C58.3509 16.8903 58.9456 17.0635 59.6885 17.0635C60.3812 17.0635 60.9121 16.9222 61.2812 16.6396C61.6504 16.3571 61.835 15.972 61.835 15.4844C61.835 14.9967 61.6641 14.6208 61.3223 14.3564C60.9805 14.0876 60.3607 13.8232 59.4629 13.5635Z" fill="#F0EEEE"/>
</svg>
