<svg width="40" height="43" viewBox="0 0 40 43" fill="none" xmlns="http://www.w3.org/2000/svg">
<path fill-rule="evenodd" clip-rule="evenodd" d="M27.2727 15.6363C27.2727 17.7098 26.5065 19.6984 25.1426 21.1646C23.7787 22.6308 21.9289 23.4545 20 23.4545C18.0712 23.4545 16.2213 22.6308 14.8574 21.1646C13.4935 19.6984 12.7273 17.7098 12.7273 15.6363C12.7273 13.5628 13.4935 11.5742 14.8574 10.108C16.2213 8.64184 18.0712 7.81815 20 7.81815C21.9289 7.81815 23.7787 8.64184 25.1426 10.108C26.5065 11.5742 27.2727 13.5628 27.2727 15.6363V15.6363ZM23.6364 15.6363C23.6364 16.6731 23.2533 17.6674 22.5713 18.4005C21.8894 19.1336 20.9644 19.5454 20 19.5454C19.0356 19.5454 18.1107 19.1336 17.4287 18.4005C16.7468 17.6674 16.3636 16.6731 16.3636 15.6363C16.3636 14.5996 16.7468 13.6053 17.4287 12.8722C18.1107 12.1391 19.0356 11.7272 20 11.7272C20.9644 11.7272 21.8894 12.1391 22.5713 12.8722C23.2533 13.6053 23.6364 14.5996 23.6364 15.6363V15.6363Z" fill="#85B6FF"/>
<path fill-rule="evenodd" clip-rule="evenodd" d="M20 0C8.95455 0 0 9.62614 0 21.5C0 33.3739 8.95455 43 20 43C31.0455 43 40 33.3739 40 21.5C40 9.62614 31.0455 0 20 0ZM3.63636 21.5C3.63636 25.585 4.93273 29.3455 7.10545 32.3321C8.63133 30.178 10.5998 28.4323 12.8572 27.2313C15.1145 26.0304 17.5995 25.4067 20.1182 25.4091C22.6042 25.4066 25.058 26.0141 27.2926 27.1853C29.5272 28.3566 31.4836 30.0608 33.0127 32.1679C34.5881 29.9468 35.6488 27.3543 36.1071 24.605C36.5654 21.8557 36.4081 19.0285 35.6482 16.3576C34.8883 13.6866 33.5477 11.2485 31.7372 9.24507C29.9268 7.24164 27.6986 5.73045 25.2371 4.83654C22.7755 3.94263 20.1513 3.69169 17.5816 4.10449C15.0119 4.5173 12.5705 5.58197 10.4596 7.21042C8.34863 8.83888 6.62875 10.9843 5.44223 13.4692C4.25572 15.954 3.63669 18.7069 3.63636 21.5V21.5ZM20 39.0909C16.2435 39.097 12.6005 37.7078 9.68727 35.1584C10.8599 33.3538 12.4206 31.8804 14.2367 30.8636C16.0528 29.8468 18.0705 29.3166 20.1182 29.3182C22.1403 29.3164 24.1336 29.8333 25.9326 30.826C27.7316 31.8186 29.2843 33.2583 30.4618 35.0255C27.526 37.6576 23.8229 39.0967 20 39.0909V39.0909Z" fill="#85B6FF"/>
</svg>
