<svg width="318" height="128" viewBox="0 0 318 128" fill="none" xmlns="http://www.w3.org/2000/svg">
<path d="M0 50C0 22.3858 22.3858 0 50 0H268C295.614 0 318 22.3858 318 50V78C318 105.614 295.614 128 268 128H50C22.3858 128 0 105.614 0 78V50Z" fill="#195078" fill-opacity="0.52"/>
<path d="M119.113 77.5703C119.113 75.5781 118.41 74.0547 117.004 73C115.598 71.9219 113.066 70.7969 109.41 69.625C105.754 68.4297 102.859 67.2578 100.727 66.1094C94.9141 62.9688 92.0078 58.7383 92.0078 53.418C92.0078 50.6523 92.7812 48.1914 94.3281 46.0352C95.8984 43.8555 98.1367 42.1562 101.043 40.9375C103.973 39.7188 107.254 39.1094 110.887 39.1094C114.543 39.1094 117.801 39.7773 120.66 41.1133C123.52 42.4258 125.734 44.2891 127.305 46.7031C128.898 49.1172 129.695 51.8594 129.695 54.9297H119.148C119.148 52.5859 118.41 50.7695 116.934 49.4805C115.457 48.168 113.383 47.5117 110.711 47.5117C108.133 47.5117 106.129 48.0625 104.699 49.1641C103.27 50.2422 102.555 51.6719 102.555 53.4531C102.555 55.1172 103.387 56.5117 105.051 57.6367C106.738 58.7617 109.211 59.8164 112.469 60.8008C118.469 62.6055 122.84 64.8438 125.582 67.5156C128.324 70.1875 129.695 73.5156 129.695 77.5C129.695 81.9297 128.02 85.4102 124.668 87.9414C121.316 90.4492 116.805 91.7031 111.133 91.7031C107.195 91.7031 103.609 90.9883 100.375 89.5586C97.1406 88.1055 94.668 86.125 92.957 83.6172C91.2695 81.1094 90.4258 78.2031 90.4258 74.8984H101.008C101.008 80.5469 104.383 83.3711 111.133 83.3711C113.641 83.3711 115.598 82.8672 117.004 81.8594C118.41 80.8281 119.113 79.3984 119.113 77.5703ZM178.914 66.5664C178.914 71.6055 178.023 76.0234 176.242 79.8203C174.461 83.6172 171.906 86.5469 168.578 88.6094C165.273 90.6719 161.477 91.7031 157.188 91.7031C152.945 91.7031 149.16 90.6836 145.832 88.6445C142.504 86.6055 139.926 83.6992 138.098 79.9258C136.27 76.1289 135.344 71.7695 135.32 66.8477V64.3164C135.32 59.2773 136.223 54.8477 138.027 51.0273C139.855 47.1836 142.422 44.2422 145.727 42.2031C149.055 40.1406 152.852 39.1094 157.117 39.1094C161.383 39.1094 165.168 40.1406 168.473 42.2031C171.801 44.2422 174.367 47.1836 176.172 51.0273C178 54.8477 178.914 59.2656 178.914 64.2812V66.5664ZM168.227 64.2461C168.227 58.8789 167.266 54.8008 165.344 52.0117C163.422 49.2227 160.68 47.8281 157.117 47.8281C153.578 47.8281 150.848 49.2109 148.926 51.9766C147.004 54.7188 146.031 58.75 146.008 64.0703V66.5664C146.008 71.793 146.969 75.8477 148.891 78.7305C150.812 81.6133 153.578 83.0547 157.188 83.0547C160.727 83.0547 163.445 81.6719 165.344 78.9062C167.242 76.1172 168.203 72.0625 168.227 66.7422V64.2461ZM213.121 77.5703C213.121 75.5781 212.418 74.0547 211.012 73C209.605 71.9219 207.074 70.7969 203.418 69.625C199.762 68.4297 196.867 67.2578 194.734 66.1094C188.922 62.9688 186.016 58.7383 186.016 53.418C186.016 50.6523 186.789 48.1914 188.336 46.0352C189.906 43.8555 192.145 42.1562 195.051 40.9375C197.98 39.7188 201.262 39.1094 204.895 39.1094C208.551 39.1094 211.809 39.7773 214.668 41.1133C217.527 42.4258 219.742 44.2891 221.312 46.7031C222.906 49.1172 223.703 51.8594 223.703 54.9297H213.156C213.156 52.5859 212.418 50.7695 210.941 49.4805C209.465 48.168 207.391 47.5117 204.719 47.5117C202.141 47.5117 200.137 48.0625 198.707 49.1641C197.277 50.2422 196.562 51.6719 196.562 53.4531C196.562 55.1172 197.395 56.5117 199.059 57.6367C200.746 58.7617 203.219 59.8164 206.477 60.8008C212.477 62.6055 216.848 64.8438 219.59 67.5156C222.332 70.1875 223.703 73.5156 223.703 77.5C223.703 81.9297 222.027 85.4102 218.676 87.9414C215.324 90.4492 210.812 91.7031 205.141 91.7031C201.203 91.7031 197.617 90.9883 194.383 89.5586C191.148 88.1055 188.676 86.125 186.965 83.6172C185.277 81.1094 184.434 78.2031 184.434 74.8984H195.016C195.016 80.5469 198.391 83.3711 205.141 83.3711C207.648 83.3711 209.605 82.8672 211.012 81.8594C212.418 80.8281 213.121 79.3984 213.121 77.5703Z" fill="white"/>
</svg>
