<svg width="71" height="41" viewBox="0 0 71 41" fill="none" xmlns="http://www.w3.org/2000/svg">
<g filter="url(#filter0_d)">
<rect width="63" height="33" rx="10" transform="matrix(1 0 0 -1 4 33)" fill="#FF2929" fill-opacity="0.46" shape-rendering="crispEdges"/>
</g>
<path d="M24.3462 19.0332L24.3892 19.1997L24.4375 19.0332L26.8975 12.1797H27.6226L24.7114 20H24.0776L21.1665 12.1797H21.8862L24.3462 19.0332ZM30.6411 20.1074C30.147 20.1074 29.6994 19.9857 29.2983 19.7422C28.9009 19.4987 28.5911 19.1603 28.3691 18.7271C28.1471 18.2902 28.0361 17.8014 28.0361 17.2607V17.0298C28.0361 16.4712 28.1436 15.9681 28.3584 15.5205C28.5768 15.0729 28.8794 14.722 29.2661 14.4678C29.6528 14.21 30.0718 14.0811 30.5229 14.0811C31.2284 14.0811 31.7869 14.3228 32.1987 14.8062C32.6141 15.286 32.8218 15.943 32.8218 16.7773V17.1372H28.6753V17.2607C28.6753 17.9196 28.8633 18.4692 29.2393 18.9097C29.6188 19.3465 30.0951 19.5649 30.668 19.5649C31.0117 19.5649 31.3143 19.5023 31.5757 19.377C31.8407 19.2516 32.0806 19.0511 32.2954 18.7754L32.6982 19.0815C32.2256 19.7655 31.5399 20.1074 30.6411 20.1074ZM30.5229 14.6289C30.0396 14.6289 29.6313 14.8062 29.2983 15.1606C28.9689 15.5151 28.7684 15.9914 28.6968 16.5894H32.1826V16.5195C32.1647 15.9609 32.0054 15.5062 31.7046 15.1553C31.4038 14.8044 31.0099 14.6289 30.5229 14.6289ZM36.7588 14.7363C36.6227 14.7113 36.4777 14.6987 36.3237 14.6987C35.9227 14.6987 35.5825 14.8115 35.3032 15.0371C35.0275 15.2591 34.8306 15.5832 34.7124 16.0093V20H34.0732V14.1885H34.7017L34.7124 15.1123C35.0526 14.4248 35.5986 14.0811 36.3506 14.0811C36.5296 14.0811 36.6711 14.1043 36.7749 14.1509L36.7588 14.7363ZM38.499 20H37.8545V14.1885H38.499V20ZM37.7417 12.5073C37.7417 12.3856 37.7811 12.2835 37.8599 12.2012C37.9386 12.1152 38.0461 12.0723 38.1821 12.0723C38.3182 12.0723 38.4256 12.1152 38.5044 12.2012C38.5868 12.2835 38.6279 12.3856 38.6279 12.5073C38.6279 12.6291 38.5868 12.7311 38.5044 12.8135C38.4256 12.8958 38.3182 12.937 38.1821 12.937C38.0461 12.937 37.9386 12.8958 37.8599 12.8135C37.7811 12.7311 37.7417 12.6291 37.7417 12.5073ZM40.7119 20V14.7148H39.7505V14.1885H40.7119V13.4849C40.7119 12.8905 40.8623 12.4339 41.1631 12.1152C41.4674 11.7965 41.89 11.6372 42.4307 11.6372C42.6742 11.6372 42.9015 11.6676 43.1128 11.7285L43.0645 12.2656C42.8854 12.2227 42.6903 12.2012 42.479 12.2012C42.1245 12.2012 41.8488 12.3122 41.6519 12.5342C41.4549 12.7526 41.3564 13.0641 41.3564 13.4688V14.1885H42.7422V14.7148H41.3564V20H40.7119ZM45.7339 19.0762L47.4312 14.1885H48.124L45.6426 20.9883L45.5137 21.2891C45.195 21.9945 44.7026 22.3472 44.0366 22.3472C43.8826 22.3472 43.7179 22.3221 43.5425 22.272L43.5371 21.7402L43.8701 21.7725C44.1852 21.7725 44.4395 21.6937 44.6328 21.5361C44.8298 21.3822 44.9963 21.1154 45.1323 20.7358L45.417 19.9517L43.2256 14.1885H43.9292L45.7339 19.0762Z" fill="black"/>
<defs>
<filter id="filter0_d" x="0" y="0" width="71" height="41" filterUnits="userSpaceOnUse" color-interpolation-filters="sRGB">
<feFlood flood-opacity="0" result="BackgroundImageFix"/>
<feColorMatrix in="SourceAlpha" type="matrix" values="0 0 0 0 0 0 0 0 0 0 0 0 0 0 0 0 0 0 127 0" result="hardAlpha"/>
<feOffset dy="4"/>
<feGaussianBlur stdDeviation="2"/>
<feComposite in2="hardAlpha" operator="out"/>
<feColorMatrix type="matrix" values="0 0 0 0 0 0 0 0 0 0 0 0 0 0 0 0 0 0 0.1 0"/>
<feBlend mode="normal" in2="BackgroundImageFix" result="effect1_dropShadow"/>
<feBlend mode="normal" in="SourceGraphic" in2="effect1_dropShadow" result="shape"/>
</filter>
</defs>
</svg>
