<svg width="360" height="50" viewBox="0 0 360 50" fill="none" xmlns="http://www.w3.org/2000/svg">
<rect x="-0.5" y="-0.5" width="361" height="50" fill="white" stroke="#D9D1D1"/>
<path d="M155.173 26.9902V32H153.485V19.2031H158.205C159.605 19.2031 160.701 19.5605 161.492 20.2754C162.289 20.9902 162.688 21.9365 162.688 23.1143C162.688 24.3564 162.298 25.3145 161.519 25.9883C160.745 26.6562 159.635 26.9902 158.188 26.9902H155.173ZM155.173 25.6104H158.205C159.107 25.6104 159.799 25.3994 160.279 24.9775C160.76 24.5498 161 23.9346 161 23.1318C161 22.3701 160.76 21.7607 160.279 21.3037C159.799 20.8467 159.14 20.6094 158.302 20.5918H155.173V25.6104ZM169.183 23.9492C168.937 23.9082 168.67 23.8877 168.383 23.8877C167.316 23.8877 166.593 24.3418 166.212 25.25V32H164.586V22.4902H166.168L166.194 23.5889C166.728 22.7393 167.483 22.3145 168.462 22.3145C168.778 22.3145 169.019 22.3555 169.183 22.4375V23.9492ZM170.079 27.1572C170.079 26.2256 170.261 25.3877 170.624 24.6436C170.993 23.8994 171.503 23.3252 172.153 22.9209C172.81 22.5166 173.557 22.3145 174.395 22.3145C175.689 22.3145 176.735 22.7627 177.532 23.6592C178.335 24.5557 178.736 25.748 178.736 27.2363V27.3506C178.736 28.2764 178.558 29.1084 178.2 29.8467C177.849 30.5791 177.342 31.1504 176.68 31.5605C176.023 31.9707 175.268 32.1758 174.412 32.1758C173.123 32.1758 172.077 31.7275 171.274 30.8311C170.478 29.9346 170.079 28.748 170.079 27.2715V27.1572ZM171.714 27.3506C171.714 28.4053 171.957 29.252 172.443 29.8906C172.936 30.5293 173.592 30.8486 174.412 30.8486C175.238 30.8486 175.895 30.5264 176.381 29.8818C176.867 29.2314 177.11 28.3232 177.11 27.1572C177.11 26.1143 176.861 25.2705 176.363 24.626C175.871 23.9756 175.215 23.6504 174.395 23.6504C173.592 23.6504 172.944 23.9697 172.452 24.6084C171.96 25.2471 171.714 26.1611 171.714 27.3506ZM181.32 32V23.7471H179.817V22.4902H181.32V21.6816C181.32 20.6211 181.622 19.7949 182.226 19.2031C182.835 18.6113 183.693 18.3154 184.801 18.3154C185.457 18.3154 186.286 18.4941 187.288 18.8516L187.016 20.2227C186.283 19.9297 185.586 19.7832 184.924 19.7832C184.227 19.7832 183.723 19.9414 183.412 20.2578C183.107 20.5684 182.955 21.0371 182.955 21.6641V22.4902H184.897V23.7471H182.955V32H181.32ZM188.097 32H186.462V22.4902H188.097V32ZM192.509 32H190.883V18.5H192.509V32ZM199.065 32.1758C197.776 32.1758 196.728 31.7539 195.919 30.9102C195.11 30.0605 194.706 28.9268 194.706 27.5088V27.21C194.706 26.2666 194.885 25.4258 195.242 24.6875C195.605 23.9434 196.109 23.3633 196.754 22.9473C197.404 22.5254 198.107 22.3145 198.863 22.3145C200.1 22.3145 201.061 22.7217 201.746 23.5361C202.432 24.3506 202.774 25.5166 202.774 27.0342V27.7109H196.332C196.355 28.6484 196.628 29.4072 197.149 29.9873C197.677 30.5615 198.345 30.8486 199.153 30.8486C199.728 30.8486 200.214 30.7314 200.612 30.4971C201.011 30.2627 201.359 29.9521 201.658 29.5654L202.651 30.3389C201.854 31.5635 200.659 32.1758 199.065 32.1758ZM198.863 23.6504C198.207 23.6504 197.656 23.8906 197.211 24.3711C196.766 24.8457 196.49 25.5137 196.385 26.375H201.148V26.252C201.102 25.4258 200.879 24.7871 200.48 24.3359C200.082 23.8789 199.543 23.6504 198.863 23.6504Z" fill="black"/>
</svg>
